<svg xmlns="http://www.w3.org/2000/svg" width="46" height="32.1" viewBox="0 0 46 32.1">
  <g id="グループ_18341" data-name="グループ 18341" transform="translate(16303 14091.1)">
    <rect id="長方形_5997" data-name="長方形 5997" width="46" height="32" transform="translate(-16303 -14091)" fill="#fff" opacity="0"/>
    <g id="グループ_18316" data-name="グループ 18316" transform="translate(-16293 -14091)">
      <path id="パス_38028" data-name="パス 38028" d="M23.552,31.091H1.992A2,2,0,0,1,0,29.1V1.992A2,2,0,0,1,1.992,0h21.56a2,2,0,0,1,1.992,1.992V29.1a2,2,0,0,1-1.992,1.992M1.992,1.075a.92.92,0,0,0-.918.918V29.1a.92.92,0,0,0,.918.918h21.56a.92.92,0,0,0,.918-.918V1.992a.92.92,0,0,0-.918-.918Z" transform="translate(0 0)" fill="#d1bd92" stroke="#d1bd92" stroke-width="0.2"/>
      <path id="パス_38029" data-name="パス 38029" d="M3.753,4.543C1.9,4.543.5,3.671.5,2.521S1.9.506,3.753.506s3.253.871,3.253,2.015-1.4,2.021-3.253,2.021m0-2.962c-1.33,0-2.178.558-2.178.941s.848.947,2.178.947,2.178-.558,2.178-.947-.848-.941-2.178-.941" transform="translate(2.404 2.433)" fill="#d1bd92" stroke="#d1bd92" stroke-width="0.2"/>
      <path id="パス_38030" data-name="パス 38030" d="M3.753,5.448C1.9,5.448.5,4.582.5,3.432S1.9,1.417,3.753,1.417s3.253.865,3.253,2.015-1.4,2.015-3.253,2.015m0-2.956c-1.33,0-2.178.558-2.178.941s.848.947,2.178.947,2.178-.558,2.178-.947-.848-.941-2.178-.941" transform="translate(2.404 6.813)" fill="#d1bd92" stroke="#d1bd92" stroke-width="0.2"/>
      <path id="パス_38031" data-name="パス 38031" d="M3.753,6.36C1.9,6.36.5,5.494.5,4.344S1.9,2.329,3.753,2.329s3.253.865,3.253,2.015S5.605,6.36,3.753,6.36m0-2.956c-1.33,0-2.178.558-2.178.941s.848.947,2.178.947,2.178-.558,2.178-.947S5.083,3.4,3.753,3.4" transform="translate(2.404 11.198)" fill="#d1bd92" stroke="#d1bd92" stroke-width="0.2"/>
      <path id="パス_38032" data-name="パス 38032" d="M3.753,7.278C1.9,7.278.5,6.406.5,5.256S1.9,3.241,3.753,3.241s3.253.865,3.253,2.015-1.4,2.021-3.253,2.021m0-2.962c-1.33,0-2.178.558-2.178.941s.848.947,2.178.947,2.178-.558,2.178-.947-.848-.941-2.178-.941" transform="translate(2.404 15.583)" fill="#d1bd92" stroke="#d1bd92" stroke-width="0.2"/>
      <path id="パス_38033" data-name="パス 38033" d="M3.753,8.183C1.9,8.183.5,7.317.5,6.167S1.9,4.152,3.753,4.152s3.253.865,3.253,2.015-1.4,2.015-3.253,2.015m0-2.956c-1.33,0-2.178.558-2.178.941s.848.947,2.178.947,2.178-.558,2.178-.947-.848-.941-2.178-.941" transform="translate(2.404 19.963)" fill="#d1bd92" stroke="#d1bd92" stroke-width="0.2"/>
      <path id="パス_38034" data-name="パス 38034" d="M23.552,31.091H1.992A2,2,0,0,1,0,29.1V1.992A2,2,0,0,1,1.992,0h21.56a2,2,0,0,1,1.992,1.992V29.1a2,2,0,0,1-1.992,1.992M1.992,1.075a.92.92,0,0,0-.918.918V29.1a.92.92,0,0,0,.918.918h21.56a.92.92,0,0,0,.918-.918V1.992a.92.92,0,0,0-.918-.918Z" transform="translate(0 0)" fill="#d1bd92" stroke="#d1bd92" stroke-width="0.2"/>
      <path id="パス_38035" data-name="パス 38035" d="M6.03,4.543c-1.853,0-3.253-.871-3.253-2.021S4.177.506,6.03.506s3.253.871,3.253,2.015S7.882,4.543,6.03,4.543m0-2.962c-1.33,0-2.178.558-2.178.941s.848.947,2.178.947,2.178-.558,2.178-.947S7.36,1.581,6.03,1.581" transform="translate(13.352 2.433)" fill="#d1bd92" stroke="#d1bd92" stroke-width="0.2"/>
      <path id="パス_38036" data-name="パス 38036" d="M6.03,5.448c-1.853,0-3.253-.865-3.253-2.015s1.4-2.015,3.253-2.015,3.253.865,3.253,2.015S7.882,5.448,6.03,5.448m0-2.956c-1.33,0-2.178.558-2.178.941s.848.947,2.178.947,2.178-.558,2.178-.947S7.36,2.492,6.03,2.492" transform="translate(13.352 6.813)" fill="#d1bd92" stroke="#d1bd92" stroke-width="0.2"/>
      <path id="パス_38037" data-name="パス 38037" d="M6.03,6.36c-1.853,0-3.253-.865-3.253-2.015s1.4-2.015,3.253-2.015,3.253.865,3.253,2.015S7.882,6.36,6.03,6.36m0-2.956c-1.33,0-2.178.558-2.178.941s.848.947,2.178.947,2.178-.558,2.178-.947S7.36,3.4,6.03,3.4" transform="translate(13.352 11.198)" fill="#d1bd92" stroke="#d1bd92" stroke-width="0.2"/>
      <path id="パス_38038" data-name="パス 38038" d="M6.03,7.278c-1.853,0-3.253-.871-3.253-2.021s1.4-2.015,3.253-2.015,3.253.865,3.253,2.015S7.882,7.278,6.03,7.278m0-2.962c-1.33,0-2.178.558-2.178.941S4.7,6.2,6.03,6.2s2.178-.558,2.178-.947S7.36,4.316,6.03,4.316" transform="translate(13.352 15.583)" fill="#d1bd92" stroke="#d1bd92" stroke-width="0.2"/>
      <path id="パス_38039" data-name="パス 38039" d="M6.03,8.183c-1.853,0-3.253-.865-3.253-2.015s1.4-2.015,3.253-2.015,3.253.865,3.253,2.015S7.882,8.183,6.03,8.183m0-2.956c-1.33,0-2.178.558-2.178.941s.848.947,2.178.947,2.178-.558,2.178-.947S7.36,5.227,6.03,5.227" transform="translate(13.352 19.963)" fill="#d1bd92" stroke="#d1bd92" stroke-width="0.2"/>
      <path id="パス_38040" data-name="パス 38040" d="M3.964,26.59a2.137,2.137,0,0,1-2.132-2.132V13.51a.537.537,0,1,1,1.074,0V24.458a1.057,1.057,0,0,0,2.114,0V2.561a1.057,1.057,0,1,0-2.114,0V10.7a.537.537,0,0,1-1.074,0V2.561a2.132,2.132,0,1,1,4.263,0v21.9A2.137,2.137,0,0,1,3.964,26.59" transform="translate(8.809 2.038)" fill="#d1bd92" stroke="#d1bd92" stroke-width="0.2"/>
      <path id="パス_38041" data-name="パス 38041" d="M3.779,2.731A.533.533,0,0,1,3.245,2.2V1.046a.534.534,0,1,1,1.069,0V2.2a.533.533,0,0,1-.534.534" transform="translate(15.603 2.433)" fill="#d1bd92" stroke="#d1bd92" stroke-width="0.2"/>
      <path id="パス_38042" data-name="パス 38042" d="M3.779,3.642a.533.533,0,0,1-.534-.534V1.957a.534.534,0,1,1,1.069,0v1.15a.533.533,0,0,1-.534.534" transform="translate(15.603 6.813)" fill="#d1bd92" stroke="#d1bd92" stroke-width="0.2"/>
      <path id="パス_38043" data-name="パス 38043" d="M3.779,4.554a.533.533,0,0,1-.534-.534V2.869a.534.534,0,1,1,1.069,0v1.15a.533.533,0,0,1-.534.534" transform="translate(15.603 11.198)" fill="#d1bd92" stroke="#d1bd92" stroke-width="0.2"/>
      <path id="パス_38044" data-name="パス 38044" d="M3.779,5.466a.533.533,0,0,1-.534-.534V3.781a.534.534,0,1,1,1.069,0v1.15a.533.533,0,0,1-.534.534" transform="translate(15.603 15.583)" fill="#d1bd92" stroke="#d1bd92" stroke-width="0.2"/>
      <path id="パス_38045" data-name="パス 38045" d="M3.779,6.377a.533.533,0,0,1-.534-.534V4.692a.534.534,0,1,1,1.069,0v1.15a.533.533,0,0,1-.534.534" transform="translate(15.603 19.963)" fill="#d1bd92" stroke="#d1bd92" stroke-width="0.2"/>
      <path id="パス_38046" data-name="パス 38046" d="M23.552,31.091H1.992A2,2,0,0,1,0,29.1V1.992A2,2,0,0,1,1.992,0h21.56a2,2,0,0,1,1.992,1.992V29.1a2,2,0,0,1-1.992,1.992M1.992,1.075a.92.92,0,0,0-.918.918V29.1a.92.92,0,0,0,.918.918h21.56a.92.92,0,0,0,.918-.918V1.992a.92.92,0,0,0-.918-.918Z" transform="translate(0 0)" fill="#d1bd92" stroke="#d1bd92" stroke-width="0.2"/>
      <path id="パス_38047" data-name="パス 38047" d="M1.5,2.731A.533.533,0,0,1,.968,2.2V1.046a.534.534,0,1,1,1.069,0V2.2a.533.533,0,0,1-.534.534" transform="translate(4.655 2.433)" fill="#d1bd92" stroke="#d1bd92" stroke-width="0.2"/>
      <path id="パス_38048" data-name="パス 38048" d="M1.5,3.642a.533.533,0,0,1-.534-.534V1.957a.534.534,0,1,1,1.069,0v1.15a.533.533,0,0,1-.534.534" transform="translate(4.655 6.813)" fill="#d1bd92" stroke="#d1bd92" stroke-width="0.2"/>
      <path id="パス_38049" data-name="パス 38049" d="M1.5,4.554a.533.533,0,0,1-.534-.534V2.869a.534.534,0,1,1,1.069,0v1.15a.533.533,0,0,1-.534.534" transform="translate(4.655 11.198)" fill="#d1bd92" stroke="#d1bd92" stroke-width="0.2"/>
      <path id="パス_38050" data-name="パス 38050" d="M1.5,5.466a.533.533,0,0,1-.534-.534V3.781a.534.534,0,1,1,1.069,0v1.15a.533.533,0,0,1-.534.534" transform="translate(4.655 15.583)" fill="#d1bd92" stroke="#d1bd92" stroke-width="0.2"/>
      <path id="パス_38051" data-name="パス 38051" d="M1.5,6.377a.533.533,0,0,1-.534-.534V4.692a.534.534,0,1,1,1.069,0v1.15a.533.533,0,0,1-.534.534" transform="translate(4.655 19.963)" fill="#d1bd92" stroke="#d1bd92" stroke-width="0.2"/>
    </g>
  </g>
</svg>
